Coordinates
version=1
nRows=5
nColumns=40
inDegrees=yes

Units are S.I. units (second, meters, Newtons, ...)
If the header above contains a line with 'inDegrees', this indicates whether rotational values are in degrees (yes) or radians (no).

endheader
time	pelvis_tilt	pelvis_list	pelvis_rotation	pelvis_tx	pelvis_ty	pelvis_tz	hip_flexion_r	hip_adduction_r	hip_rotation_r	knee_angle_r	knee_angle_r_beta	ankle_angle_r	subtalar_angle_r	mtp_angle_r	hip_flexion_l	hip_adduction_l	hip_rotation_l	knee_angle_l	knee_angle_l_beta	ankle_angle_l	subtalar_angle_l	mtp_angle_l	lumbar_extension	lumbar_bending	lumbar_rotation	arm_flex_r	arm_add_r	arm_rot_r	elbow_flex_r	pro_sup_r	wrist_flex_r	wrist_dev_r	arm_flex_l	arm_add_l	arm_rot_l	elbow_flex_l	pro_sup_l	wrist_flex_l	wrist_dev_l
      4.26000000	    -51.24488891	     -7.19532371	     14.34734861	     -0.00234029	      0.55829127	     -1.20747402	    123.47805478	    -48.58900061	      8.34658481	     85.84154190	      1.49821754	      5.98062086	    -16.14142017	      0.00000000	    121.89901693	    -17.06454614	     -0.39207808	     76.98669950	      1.34367139	     -0.28060055	     -2.49104201	      0.00000000	      0.00000000	      0.00000000	      0.00000000	     44.99992323	    -14.99999999	     44.99992323	     75.00017585	     45.00000026	      0.00000000	      0.00000000	     44.99992323	    -14.99999999	     44.99992323	     75.00017585	     45.00000026	      0.00000000	      0.00000000
      4.26500000	    -51.27007888	     -7.13296257	     14.32367927	     -0.00276712	      0.55953910	     -1.20758895	    123.30895493	    -48.52261402	      8.20462799	     85.56433101	      1.49337930	      5.84307980	    -16.19428846	      0.00000000	    121.71990044	    -17.03230216	     -0.48229299	     76.73868092	      1.33934265	     -0.39993744	     -2.57521395	      0.00000000	      0.00000000	      0.00000000	      0.00000000	     44.99992328	    -14.99999999	     44.99992328	     75.00017585	     45.00000026	      0.00000000	      0.00000000	     44.99992328	    -14.99999999	     44.99992328	     75.00017585	     45.00000026	      0.00000000	      0.00000000
      4.27000000	    -51.28519359	     -7.13074751	     14.36073417	     -0.00319317	      0.56079033	     -1.20792731	    123.12311280	    -48.55893303	      8.04371557	     85.29161475	      1.48861950	      5.73110524	    -16.21586169	      0.00000000	    121.55575778	    -16.90465964	     -0.54865823	     76.48641255	      1.33493973	     -0.52643371	     -2.64848906	      0.00000000	      0.00000000	      0.00000000	      0.00000000	     44.99992332	    -14.99999999	     44.99992332	     75.00017585	     45.00000026	      0.00000000	      0.00000000	     44.99992332	    -14.99999999	     44.99992332	     75.00017585	     45.00000026	      0.00000000	      0.00000000
      4.27500000	    -51.26383230	     -7.11021776	     14.39491631	     -0.00360861	      0.56209704	     -1.20822142	    122.89802178	    -48.57104919	      7.90109473	     85.01834538	      1.48385005	      5.59565819	    -16.25766423	      0.00000000	    121.34591645	    -16.78590896	     -0.61750945	     76.23338729	      1.33052361	     -0.65511245	     -2.78925487	      0.00000000	      0.00000000	      0.00000000	      0.00000000	     44.99992337	    -14.99999999	     44.99992337	     75.00017585	     45.00000026	      0.00000000	      0.00000000	     44.99992337	    -14.99999999	     44.99992337	     75.00017585	     45.00000026	      0.00000000	      0.00000000
      4.28000000	    -51.21913641	     -7.11891033	     14.44346771	     -0.00397883	      0.56342555	     -1.20855940	    122.61577861	    -48.61367004	      7.71558253	     84.74803255	      1.47913220	      5.49553439	    -16.28391151	      0.00000000	    121.13601369	    -16.64889574	     -0.66861565	     75.99101805	      1.32629347	     -0.79337801	     -2.89828300	      0.00000000	      0.00000000	      0.00000000	      0.00000000	     44.99992341	    -14.99999999	     44.99992341	     75.00017585	     45.00000026	      0.00000000	      0.00000000	     44.99992341	    -14.99999999	     44.99992341	     75.00017585	     45.00000026	      0.00000000	      0.00000000
